# xmcd CD database file
#
# Track frame offsets:
#	150
#	10935
#	23604
#	41329
#	56836
#	69116
#	83346
#	93088
#	103018
#	121230
#	133867
#	146662
#	165657
#	183360
#	193547
#	202719
#	222524
#	249958
#	262750
#	275155
#	290769
#	303859
#
# Disc length: 4223 seconds
#
# Revision: 0
# Processed by: cddbd v1.5.1PL0 Copyright (c) Steve Scherf et al.
# Submitted via: CDex 1.51
#
DISCID=29107d16
DTITLE=Chico Buarque de Holanda - Selecao  N 05
DYEAR=1980
DGENRE=MPB
TTITLE0=Joao e Maria-e Sivuca
TTITLE1=O que serah- e Milton Nascimento
TTITLE2=Apesar de Voce
TTITLE3=Quem te viu quem te ve
TTITLE4=Ole Olah
TTITLE5=Noite dos Namorados
TTITLE6=Samba do Grande Amor
TTITLE7=A Banda
TTITLE8=Calice- e Milton Nascimento
TTITLE9=Cotidiano- e Tom Jobim
TTITLE10=Trocando em Miudos- e Francis Hime
TTITLE11=Fado Tropical
TTITLE12=O Meu Guri
TTITLE13=Doze Anos- e Moreira da Silva
TTITLE14=Valsinha
TTITLE15=Meu caro Amigo
TTITLE16=Vai Passar- e Francis Hime
TTITLE17=As Vitrines
TTITLE18=Atras da Porta- e Hime
TTITLE19=Sem Fantasia
TTITLE20=Com Acucar e com Afeto
TTITLE21=Quando o Carnaval Chegar
EXTD=YEAR: 1980
EXTT0=
EXTT1=
EXTT2=
EXTT3=
EXTT4=
EXTT5=
EXTT6=
EXTT7=
EXTT8=
EXTT9=
EXTT10=
EXTT11=
EXTT12=
EXTT13=
EXTT14=
EXTT15=
EXTT16=
EXTT17=
EXTT18=
EXTT19=
EXTT20=
EXTT21=
PLAYORDER=
